<mxfile host="65bd71144e">
    <diagram id="mlIAoINFkRTp-XszBmK0" name="Page-1">
        <mxGraphModel dx="1976" dy="1572" grid="1" gridSize="10" guides="1" tooltips="1" connect="1" arrows="1" fold="1" page="1" pageScale="1" pageWidth="850" pageHeight="1100" math="0" shadow="0">
            <root>
                <mxCell id="0"/>
                <mxCell id="1" parent="0"/>
                <mxCell id="3" value="end" style="html=1;dashed=0;whitespace=wrap;shape=mxgraph.dfd.start" parent="1" vertex="1">
                    <mxGeometry x="380" y="700" width="80" height="30" as="geometry"/>
                </mxCell>
                <mxCell id="31" style="edgeStyle=none;html=1;entryX=0.5;entryY=0;entryDx=0;entryDy=0;" parent="1" source="4" target="5" edge="1">
                    <mxGeometry relative="1" as="geometry"/>
                </mxCell>
                <mxCell id="4" value="start" style="html=1;dashed=0;whitespace=wrap;shape=mxgraph.dfd.start" parent="1" vertex="1">
                    <mxGeometry x="365" y="-140" width="80" height="30" as="geometry"/>
                </mxCell>
                <mxCell id="22" style="edgeStyle=none;html=1;entryX=0.5;entryY=0;entryDx=0;entryDy=0;entryPerimeter=0;" parent="1" source="5" target="7" edge="1">
                    <mxGeometry relative="1" as="geometry"/>
                </mxCell>
                <mxCell id="23" value="False" style="edgeLabel;html=1;align=center;verticalAlign=middle;resizable=0;points=[];" parent="22" vertex="1" connectable="0">
                    <mxGeometry x="-0.1685" relative="1" as="geometry">
                        <mxPoint as="offset"/>
                    </mxGeometry>
                </mxCell>
                <mxCell id="30" style="edgeStyle=none;html=1;" parent="1" source="5" edge="1">
                    <mxGeometry relative="1" as="geometry">
                        <mxPoint x="780" y="190" as="targetPoint"/>
                        <Array as="points">
                            <mxPoint x="780" y="30"/>
                        </Array>
                    </mxGeometry>
                </mxCell>
                <mxCell id="33" value="True" style="edgeLabel;html=1;align=center;verticalAlign=middle;resizable=0;points=[];" parent="30" vertex="1" connectable="0">
                    <mxGeometry x="-0.4746" y="-1" relative="1" as="geometry">
                        <mxPoint as="offset"/>
                    </mxGeometry>
                </mxCell>
                <mxCell id="5" value="&lt;div style=&quot;color: rgb(171, 178, 191); background-color: rgb(40, 44, 52); font-family: MontserratAlternates-Regular, Consolas, &amp;quot;Courier New&amp;quot;, monospace; font-size: 18px; line-height: 24px;&quot;&gt;arr.&lt;span style=&quot;color: #e06c75;&quot;&gt;length&lt;/span&gt; &lt;span style=&quot;color: #56b6c2;&quot;&gt;&amp;lt;&lt;/span&gt; &lt;span style=&quot;color: #d19a66;&quot;&gt;2&lt;/span&gt;&lt;/div&gt;" style="shape=hexagon;perimeter=hexagonPerimeter2;whiteSpace=wrap;html=1;size=0.25" parent="1" vertex="1">
                    <mxGeometry x="292.5" width="225" height="50" as="geometry"/>
                </mxCell>
                <mxCell id="10" style="edgeStyle=none;html=1;entryX=0.5;entryY=0;entryDx=0;entryDy=0;" parent="1" source="6" target="8" edge="1">
                    <mxGeometry relative="1" as="geometry"/>
                </mxCell>
                <mxCell id="12" value="True" style="edgeLabel;html=1;align=center;verticalAlign=middle;resizable=0;points=[];" parent="10" vertex="1" connectable="0">
                    <mxGeometry x="-0.1217" relative="1" as="geometry">
                        <mxPoint as="offset"/>
                    </mxGeometry>
                </mxCell>
                <mxCell id="11" style="edgeStyle=none;html=1;entryX=0.5;entryY=0;entryDx=0;entryDy=0;" parent="1" source="6" target="9" edge="1">
                    <mxGeometry relative="1" as="geometry"/>
                </mxCell>
                <mxCell id="13" value="False" style="edgeLabel;html=1;align=center;verticalAlign=middle;resizable=0;points=[];" parent="11" vertex="1" connectable="0">
                    <mxGeometry x="-0.2445" y="2" relative="1" as="geometry">
                        <mxPoint as="offset"/>
                    </mxGeometry>
                </mxCell>
                <mxCell id="6" value="&lt;div style=&quot;color: rgb(171, 178, 191); background-color: rgb(40, 44, 52); font-family: MontserratAlternates-Regular, Consolas, &amp;quot;Courier New&amp;quot;, monospace; font-size: 18px; line-height: 24px;&quot;&gt;pivot &lt;span style=&quot;color: #56b6c2;&quot;&gt;&amp;gt;&lt;/span&gt; arr[i]&lt;/div&gt;" style="shape=hexagon;perimeter=hexagonPerimeter2;whiteSpace=wrap;html=1;size=0.25" parent="1" vertex="1">
                    <mxGeometry x="282.5" y="270" width="245" height="50" as="geometry"/>
                </mxCell>
                <mxCell id="18" style="edgeStyle=none;html=1;entryX=0.5;entryY=0;entryDx=0;entryDy=0;" parent="1" source="7" target="6" edge="1">
                    <mxGeometry relative="1" as="geometry"/>
                </mxCell>
                <mxCell id="27" style="edgeStyle=none;html=1;" parent="1" source="7" target="25" edge="1">
                    <mxGeometry relative="1" as="geometry">
                        <mxPoint x="780" y="600" as="targetPoint"/>
                        <Array as="points">
                            <mxPoint x="780" y="185"/>
                            <mxPoint x="780" y="550"/>
                        </Array>
                    </mxGeometry>
                </mxCell>
                <mxCell id="28" value="i &amp;gt;= arr.length" style="edgeLabel;html=1;align=center;verticalAlign=middle;resizable=0;points=[];" parent="27" vertex="1" connectable="0">
                    <mxGeometry x="-0.7495" relative="1" as="geometry">
                        <mxPoint as="offset"/>
                    </mxGeometry>
                </mxCell>
                <mxCell id="7" value="&lt;div style=&quot;color: rgb(171, 178, 191); background-color: rgb(40, 44, 52); font-family: MontserratAlternates-Regular, Consolas, &amp;quot;Courier New&amp;quot;, monospace; font-size: 18px; line-height: 24px;&quot;&gt;&amp;nbsp; &amp;nbsp; &lt;span style=&quot;color: #c678dd;&quot;&gt;for&lt;/span&gt; (&lt;span style=&quot;color: #c678dd;&quot;&gt;let&lt;/span&gt; i &lt;span style=&quot;color: #56b6c2;&quot;&gt;=&lt;/span&gt; &lt;span style=&quot;color: #d19a66;&quot;&gt;1&lt;/span&gt;; i &lt;span style=&quot;color: #56b6c2;&quot;&gt;&amp;lt;&lt;/span&gt; arr.&lt;span style=&quot;color: #e06c75;&quot;&gt;length&lt;/span&gt;; i&lt;span style=&quot;color: #56b6c2;&quot;&gt;++&lt;/span&gt;)&lt;/div&gt;" style="html=1;dashed=0;whitespace=wrap;shape=mxgraph.dfd.loop" parent="1" vertex="1">
                    <mxGeometry x="160" y="170" width="490" height="30" as="geometry"/>
                </mxCell>
                <mxCell id="14" style="edgeStyle=none;html=1;entryX=0.194;entryY=1;entryDx=0;entryDy=0;entryPerimeter=0;" parent="1" source="8" target="7" edge="1">
                    <mxGeometry relative="1" as="geometry"/>
                </mxCell>
                <mxCell id="17" value="I++" style="edgeLabel;html=1;align=center;verticalAlign=middle;resizable=0;points=[];" parent="14" vertex="1" connectable="0">
                    <mxGeometry x="0.21" y="-5" relative="1" as="geometry">
                        <mxPoint y="-9" as="offset"/>
                    </mxGeometry>
                </mxCell>
                <mxCell id="8" value="&lt;div style=&quot;color: rgb(171, 178, 191); background-color: rgb(40, 44, 52); font-family: MontserratAlternates-Regular, Consolas, &amp;quot;Courier New&amp;quot;, monospace; font-size: 18px; line-height: 24px;&quot;&gt;&amp;nbsp;left.&lt;span style=&quot;color: #61afef;&quot;&gt;push&lt;/span&gt;(arr[i]);&lt;/div&gt;" style="html=1;dashed=0;whitespace=wrap;" parent="1" vertex="1">
                    <mxGeometry x="120" y="400" width="230" height="50" as="geometry"/>
                </mxCell>
                <mxCell id="15" style="edgeStyle=none;html=1;entryX=0.855;entryY=1.133;entryDx=0;entryDy=0;entryPerimeter=0;" parent="1" source="9" target="7" edge="1">
                    <mxGeometry relative="1" as="geometry"/>
                </mxCell>
                <mxCell id="16" value="I++" style="edgeLabel;html=1;align=center;verticalAlign=middle;resizable=0;points=[];" parent="15" vertex="1" connectable="0">
                    <mxGeometry x="0.3572" y="-1" relative="1" as="geometry">
                        <mxPoint as="offset"/>
                    </mxGeometry>
                </mxCell>
                <mxCell id="9" value="&lt;div style=&quot;color: rgb(171, 178, 191); background-color: rgb(40, 44, 52); font-family: MontserratAlternates-Regular, Consolas, &amp;quot;Courier New&amp;quot;, monospace; font-size: 18px; line-height: 24px;&quot;&gt;right.&lt;span style=&quot;color: #61afef;&quot;&gt;push&lt;/span&gt;(arr[i]);&lt;/div&gt;" style="html=1;dashed=0;whitespace=wrap;" parent="1" vertex="1">
                    <mxGeometry x="480" y="400" width="230" height="50" as="geometry"/>
                </mxCell>
                <mxCell id="29" style="edgeStyle=none;html=1;entryX=0;entryY=0.5;entryDx=0;entryDy=0;" parent="1" source="25" target="5" edge="1">
                    <mxGeometry relative="1" as="geometry">
                        <mxPoint y="-20" as="targetPoint"/>
                        <Array as="points">
                            <mxPoint y="550"/>
                            <mxPoint y="20"/>
                        </Array>
                    </mxGeometry>
                </mxCell>
                <mxCell id="34" style="edgeStyle=none;html=1;" parent="1" source="25" target="3" edge="1">
                    <mxGeometry relative="1" as="geometry"/>
                </mxCell>
                <mxCell id="25" value="&lt;div style=&quot;color: rgb(171, 178, 191); background-color: rgb(40, 44, 52); font-family: MontserratAlternates-Regular, Consolas, &amp;quot;Courier New&amp;quot;, monospace; font-size: 18px; line-height: 24px;&quot;&gt;&lt;span style=&quot;color: #61afef;&quot;&gt;return quickSort&lt;/span&gt;(left).&lt;span style=&quot;color: #61afef;&quot;&gt;concat&lt;/span&gt;(pivot,&lt;span style=&quot;color: #61afef;&quot;&gt;quickSort&lt;/span&gt;(right))&lt;/div&gt;" style="html=1;dashed=0;whitespace=wrap;" parent="1" vertex="1">
                    <mxGeometry x="95" y="525" width="650" height="50" as="geometry"/>
                </mxCell>
                <mxCell id="36" value="arr : number[]&lt;br&gt;left : number[]&lt;br&gt;right : number[]&lt;br&gt;pivot : number = arr[rand]" style="html=1;dashed=0;whitespace=wrap;" parent="1" vertex="1">
                    <mxGeometry x="660" y="-190" width="150" height="120" as="geometry"/>
                </mxCell>
                <mxCell id="37" value="Когда отсортированы цифры левве от сравниваемого,&lt;br&gt;и отсортированы цифры правее от сравниваемого,&lt;br&gt;тогда прогрпмма заканчивает исполнение." style="html=1;dashed=0;whitespace=wrap;" parent="1" vertex="1">
                    <mxGeometry x="-380" y="610" width="370" height="150" as="geometry"/>
                </mxCell>
            </root>
        </mxGraphModel>
    </diagram>
</mxfile>